<?xml version="1.0" encoding="UTF-8"?>
<!DOCTYPE svg PUBLIC "-//W3C//DTD SVG 1.1//EN" "http://www.w3.org/Graphics/SVG/1.1/DTD/svg11.dtd">
<!-- Creator: CorelDRAW -->
<svg xmlns="http://www.w3.org/2000/svg" xml:space="preserve" width="632px" height="128px" version="1.1" style="shape-rendering:geometricPrecision; text-rendering:geometricPrecision; image-rendering:optimizeQuality; fill-rule:evenodd; clip-rule:evenodd"
viewBox="0 0 62.71 12.66"
 xmlns:xlink="http://www.w3.org/1999/xlink"
 xmlns:xodm="http://www.corel.com/coreldraw/odm/2003">
 <defs>
  <style type="text/css">
   <![CDATA[
    .fil0 {fill:white}
    .fil1 {fill:white;fill-rule:nonzero}
   ]]>
  </style>
 </defs>
 <g id="Camada_x0020_1">
  <metadata id="CorelCorpID_0Corel-Layer"/>
  <g id="_1404753394528">
   <path class="fil0" d="M8.9 11.03c-0.18,0.07 -2.01,0.04 -2.31,0.01 -0.83,-0.06 -1.29,-0.25 -1.72,-0.66 -0.33,-0.32 -0.73,-0.97 -0.72,-1.67 0,-0.68 0.24,-1.23 0.68,-1.7 0.92,-0.96 2.58,-0.91 3.38,-0.03 0.85,0.95 0.71,1.61 0.71,2.87 0,0.34 0.04,0.87 -0.02,1.18zm1.55 1.6c0.06,-0.19 0.02,-3.46 0.02,-3.94 0,-0.82 -0.02,-0.98 -0.31,-1.66 -0.23,-0.51 -0.5,-0.89 -0.81,-1.18 -0.74,-0.71 -1.68,-1.18 -2.79,-1.18 -0.93,0 -1.53,0.22 -2.26,0.7 -0.63,0.41 -1.04,0.88 -1.38,1.59 -0.29,0.58 -0.32,0.96 -0.32,1.67 -0.01,0.97 0.1,1.52 0.65,2.31 0.06,0.09 0.14,0.2 0.21,0.27 0.3,0.32 0.37,0.44 0.78,0.72 0.62,0.43 1.48,0.72 2.27,0.72 0.49,0 3.75,0.04 3.94,-0.02z"/>
   <path class="fil0" d="M0 10.38l2.48 0c-0.05,-0.19 -0.13,-0.36 -0.19,-0.56 -0.06,-0.23 -0.05,-0.44 -0.09,-0.66l-0.82 0 0 -7.94c0.55,-0.02 1.52,0 2.12,0 1.14,0 1.99,0.1 2.62,0.72 0.63,0.61 0.91,1.47 1,2.37 0.79,0.1 0.94,0.29 1.45,0.48 0.02,-0.89 -0.31,-2.16 -0.77,-2.9 -1.04,-1.65 -2.36,-1.89 -4.27,-1.89l-3.53 0 0 10.38z"/>
   <path class="fil0" d="M4.6 9.11c0.04,0.22 0.14,0.46 0.26,0.63 0.11,0.16 0.29,0.38 0.46,0.49 0.44,-0.07 1.02,-0.34 1.33,-0.54 0.36,-0.24 0.7,-0.6 0.95,-0.95 0.22,-0.3 0.34,-0.56 0.49,-0.91 0.07,-0.15 0.12,-0.21 0.04,-0.32 -0.25,-0.37 -0.57,-0.62 -1.13,-0.76 -0.22,0.54 -0.22,0.84 -0.64,1.42 -0.46,0.63 -1.01,0.78 -1.76,0.94z"/>
  </g>
  <path class="fil1" d="M15.47 9.92c1.34,0 2.14,-0.47 2.85,-1.24l-0.97 -0.98c-0.55,0.5 -1.03,0.82 -1.83,0.82 -1.19,0 -2.01,-1 -2.01,-2.19l0 -0.02c0,-1.19 0.84,-2.16 2.01,-2.16 0.7,0 1.24,0.29 1.78,0.78l0.97 -1.12c-0.64,-0.64 -1.43,-1.07 -2.74,-1.07 -2.13,0 -3.62,1.62 -3.62,3.59l0 0.02c0,2 1.52,3.57 3.56,3.57z"/>
  <path id="_1" class="fil1" d="M22.72 9.92c2.14,0 3.7,-1.61 3.7,-3.59l0 -0.02c0,-1.97 -1.54,-3.57 -3.68,-3.57 -2.14,0 -3.7,1.62 -3.7,3.59l0 0.02c0,1.98 1.54,3.57 3.68,3.57zm0.02 -1.4c-1.23,0 -2.1,-1 -2.1,-2.19l0 -0.02c0,-1.19 0.85,-2.16 2.08,-2.16 1.23,0 2.1,0.99 2.1,2.18l0 0.02c0,1.19 -0.85,2.17 -2.08,2.17z"/>
  <polygon id="_2" class="fil1" points="27.78,9.81 29.29,9.81 29.29,5.39 32.66,9.81 33.96,9.81 33.96,2.86 32.45,2.86 32.45,7.14 29.19,2.86 27.78,2.86 "/>
  <polygon id="_3" class="fil1" points="35.63,9.81 37.13,9.81 37.13,5.39 40.5,9.81 41.8,9.81 41.8,2.86 40.29,2.86 40.29,7.14 37.04,2.86 35.63,2.86 "/>
  <polygon id="_4" class="fil1" points="43.47,9.81 48.76,9.81 48.76,8.45 44.99,8.45 44.99,6.99 48.26,6.99 48.26,5.63 44.99,5.63 44.99,4.22 48.71,4.22 48.71,2.86 43.47,2.86 "/>
  <path id="_5" class="fil1" d="M53.38 9.92c1.34,0 2.13,-0.47 2.85,-1.24l-0.98 -0.98c-0.54,0.5 -1.03,0.82 -1.82,0.82 -1.2,0 -2.02,-1 -2.02,-2.19l0 -0.02c0,-1.19 0.84,-2.16 2.02,-2.16 0.69,0 1.24,0.29 1.77,0.78l0.98 -1.12c-0.65,-0.64 -1.43,-1.07 -2.74,-1.07 -2.14,0 -3.63,1.62 -3.63,3.59l0 0.02c0,2 1.52,3.57 3.57,3.57z"/>
  <polygon id="_6" class="fil1" points="59.06,9.81 60.59,9.81 60.59,4.27 62.71,4.27 62.71,2.86 56.95,2.86 56.95,4.27 59.06,4.27 "/>
 </g>
</svg>
