<?xml version="1.0" encoding="UTF-8"?>
<!DOCTYPE svg PUBLIC "-//W3C//DTD SVG 1.1//EN" "http://www.w3.org/Graphics/SVG/1.1/DTD/svg11.dtd">
<!-- Creator: CorelDRAW -->
<svg xmlns="http://www.w3.org/2000/svg" xml:space="preserve" width="1167px" height="319px" version="1.1" style="shape-rendering:geometricPrecision; text-rendering:geometricPrecision; image-rendering:optimizeQuality; fill-rule:evenodd; clip-rule:evenodd"
viewBox="0 0 424.5 115.88"
 xmlns:xlink="http://www.w3.org/1999/xlink"
 xmlns:xodm="http://www.corel.com/coreldraw/odm/2003">
 <defs>
  <style type="text/css">
   <![CDATA[
    .fil1 {fill:white}
    .fil0 {fill:white}
   ]]>
  </style>
 </defs>
 <g id="Camada_x0020_1">
  <metadata id="CorelCorpID_0Corel-Layer"/>
  <g id="_1404741431312">
   <path class="fil0" d="M345.11 39.68l0.11 41.46c0,7.81 2.37,10.24 9.84,10.25 4.11,0.01 2.65,-0.45 2.95,12.55 0.12,5.32 0.79,8.79 5.76,9.64 4.7,0.8 8.06,-2.67 8.25,-6.96 0.17,-3.94 -0.54,-11.91 0.14,-15.12 1.29,-0.07 8.19,-0.5 8.84,0.05 0.79,0.68 0.45,10.58 0.45,12.1 0,3.2 -0.3,4.81 1.38,7.17 2.73,3.82 9.07,3.71 11.44,-0.53 2.3,-4.1 0.25,-17.73 1.36,-18.82 1,-0.98 12.47,2.33 12.47,-8.85 0,-13.67 0.26,-28.63 0.01,-42.05l-0.09 -2.25c-1.35,-0.34 -49.6,-0.27 -56.22,-0.27 -1.39,0 -2.78,0.01 -4.17,-0.01 -1.87,-0.04 -2.53,-0.35 -2.52,1.64z"/>
   <path class="fil0" d="M389.78 19.55c3.41,-1.84 5.18,3.23 2.34,4.47 -1.57,0.68 -3.07,-0.06 -3.59,-1.24 -0.77,-1.76 0.33,-2.73 1.25,-3.23zm-28.73 -0.03c3.31,-1.75 5.51,3.05 2.25,4.41 -2.99,1.25 -5.38,-2.76 -2.25,-4.41zm-0.34 -9.16c-2.53,2.4 -10.3,5.08 -14.27,16.56 -0.54,1.56 -2.07,7.13 -1.07,8.5 0.66,0.75 2.93,0.42 4.65,0.42 17.84,0 37.44,0.33 55.09,0.02l2.83 -0.1c1.03,-4.75 -2.84,-12.7 -4.75,-15.49 -4.41,-6.44 -8.2,-7.42 -10.86,-9.91 0.44,-1.46 1.92,-3.74 2.64,-5.1 0.87,-1.63 2.63,-3.52 1.59,-5.26 -1.71,0.05 -1.72,1.09 -3.45,4.28 -0.82,1.51 -1.85,3.77 -2.81,4.94 -1.6,0.05 -11.33,-4.33 -20.99,-1.76 -1.59,0.42 -5.16,1.8 -6.55,1.71 -1.9,-2.4 -4.47,-9.43 -5.89,-9.11 -1.4,0.31 -0.56,1.82 -0.08,2.64 0.92,1.56 3.76,6.54 3.92,7.66z"/>
   <path class="fil0" d="M334.15 36.97c-4.51,1.04 -5.59,3.74 -5.56,8.93 0.02,4.22 -0.2,26.49 0.2,28.66 1.35,7.35 14.08,9.4 13.96,-3.49 -0.04,-4.22 0.14,-26.5 -0.26,-28.62 -0.66,-3.5 -4.18,-6.43 -8.34,-5.48z"/>
   <path class="fil0" d="M416.39 36.91c-4.22,0.81 -5.99,3.59 -6.05,8.39 -0.02,2.31 -0.06,4.82 0.12,7.11 0.2,2.39 -0.05,4.72 -0.06,7.11 -0.01,4.2 -0.41,10.19 0.06,14.2 0.94,8.16 13.93,9.89 13.98,-2.35 0.03,-6.76 0.17,-14.61 -0.13,-21.33 -0.1,-2.29 0.17,-4.92 0,-7.08 -0.29,-3.61 -3.83,-6.85 -7.92,-6.05z"/>
  </g>
  <g id="_1404741444176">
   <path class="fil0" d="M263.61 85.4c-7.98,-3.25 -14.82,-10.25 -15.65,-20.85 -0.71,-9.12 2.24,-14.66 7.49,-20.14 1.68,-1.74 3.78,-2.69 5.12,-4.12 -1.28,-2.84 -8.25,-7.8 -11.83,-9.39 -5.1,-2.27 -11.98,-2.84 -17.73,-1 -5.14,1.65 -11.02,4.58 -16.88,3.46 -5.91,-1.12 -10.16,-4 -16.62,-4.5 -12.54,-0.97 -22.52,8.42 -26.45,15.57 -5.67,10.33 -5.59,23.67 -2.04,35.78 3.47,11.82 14.8,34.83 27.95,35.64 6.46,0.4 10.68,-3.73 16.91,-4.56 15.69,-2.09 19.15,11.05 32.93,0.01 4.98,-3.99 16.48,-21.53 16.8,-25.9z"/>
   <path class="fil0" d="M235.37 2.29c-7.85,1.89 -12.49,5.23 -16.16,9.64 -2.98,3.59 -5.26,8.59 -5.64,13.65 -0.22,2.88 -0.58,4.44 2.31,3.92 10.18,-1.82 17.43,-7.96 20.36,-18 0.51,-1.78 0.82,-3.58 0.92,-5.45 0.12,-2.42 0.66,-4.35 -1.79,-3.76z"/>
  </g>
  <path class="fil1" d="M65.93 106.68c0.5,-0.9 3.14,-3.17 6.15,-9.31 1.29,-2.63 2.38,-5.38 3.31,-8.21 0.22,-0.66 0.63,-2.35 0.91,-2.86 2.46,0.09 13.48,3.1 15.2,4.14 -0.19,0.41 -2.11,2.54 -2.44,2.82 -0.87,0.74 -1,1.09 -2.02,1.94 -0.24,0.21 -0.41,0.42 -0.66,0.63 -3.78,3.21 -7.9,6.1 -12.67,8.15 -1.74,0.75 -5.98,2.47 -7.78,2.7zm-50.15 -16.24c1.72,-1.04 12.74,-4.05 15.2,-4.14 0.29,0.52 0.7,2.24 0.93,2.93 1.69,5.07 4.39,11.23 7.71,15.33l1.73 2.13c-1.19,-0.19 -2.99,-0.84 -4.1,-1.23 -6.01,-2.11 -11.8,-5.57 -16.4,-9.67 -1.05,-0.94 -4.66,-4.43 -5.07,-5.35zm40.04 -6.04c5.19,-0.07 11,0.51 16.05,1.17 -0.15,1.2 -1.92,5.87 -2.49,7.17 -1.81,4.16 -4.28,8.72 -7.47,11.68 -1.23,1.15 -3.65,3.2 -6.08,3.58l-0.01 -23.6zm-20.42 1.17c5.06,-0.66 10.86,-1.24 16.05,-1.17l0 23.6c-2.45,-0.38 -4.91,-2.47 -6.13,-3.62 -3.2,-3.02 -5.63,-7.49 -7.45,-11.71 -0.55,-1.26 -2.32,-5.92 -2.47,-7.1zm20.43 -24.62l19.57 0c0.07,4.37 -0.66,11.19 -1.44,15.63 -0.28,1.57 -0.71,3.21 -0.92,4.7 -1.36,-0.09 -2.84,-0.35 -4.2,-0.5 -4.65,-0.5 -8.29,-0.61 -13.01,-0.78l0 -19.05zm-21.59 20.33c-0.22,-1.51 -0.66,-3.18 -0.93,-4.78 -0.78,-4.46 -1.51,-11.16 -1.43,-15.55l19.57 0 -0.04 19.05c-4.75,0.17 -8.35,0.29 -13.06,0.79 -1.33,0.15 -2.78,0.4 -4.11,0.49zm43.19 0.73c-0.08,-0.43 0.75,-4.13 0.89,-4.92 0.91,-5.21 1.37,-10.83 1.47,-16.14l23.06 0c-0.13,8.05 -2.84,16.46 -6.85,23.22l-1.62 2.63c-0.55,-0.09 -1.49,-0.57 -2.06,-0.78 -4.91,-1.78 -9.61,-3.15 -14.89,-4.01zm-49.21 -9.99c0.21,1.72 0.45,3.45 0.75,5.15 0.14,0.78 0.96,4.42 0.87,4.84 -4.51,0.76 -8.75,1.9 -13,3.32 -0.66,0.23 -1.29,0.48 -1.95,0.72 -0.59,0.21 -1.44,0.66 -2,0.75 -0.13,-0.35 -0.61,-1.02 -0.84,-1.37 -0.76,-1.16 -1.68,-2.8 -2.32,-4.04 -3.04,-5.91 -5.19,-13.55 -5.3,-20.44l23.05 0.01c0.08,3.72 0.31,7.41 0.74,11.06zm27.65 -34.05c4.48,-0.09 8.62,-0.31 13.04,-0.79 1.35,-0.14 2.78,-0.4 4.11,-0.49 0.2,1.49 0.65,3.16 0.92,4.72 0.28,1.58 0.51,3.19 0.71,4.82 0.38,3.05 0.83,7.24 0.73,10.33l-19.55 -0.01 0.04 -18.58zm-23.98 18.59c-0.11,-3.9 0.73,-11.16 1.46,-15.23 0.27,-1.52 0.71,-3.19 0.91,-4.64 1.35,0.1 2.82,0.35 4.18,0.5 4.34,0.47 8.61,0.69 13.01,0.78l-0.01 18.59 -19.55 0zm45.46 -20.6c2.9,-0.32 10.13,-2.27 13.01,-3.3l3.9 -1.45c0.76,0.82 2.57,4.16 3.18,5.3 2.94,5.49 5.28,13.65 5.38,20.05l-23.03 -0.01c-0.18,-3.67 -0.33,-7.12 -0.77,-10.74 -0.2,-1.69 -0.44,-3.34 -0.73,-4.99 -0.27,-1.55 -0.75,-3.36 -0.94,-4.86zm-72.89 20.59c0.06,-6.29 2.47,-14.63 5.37,-20.04 0.63,-1.16 2.41,-4.45 3.19,-5.3 0.49,0.1 1.47,0.55 2.01,0.76 3.34,1.33 11.56,3.64 14.89,3.99 -0.19,1.53 -0.67,3.35 -0.95,4.94 -0.98,5.62 -1.21,9.93 -1.48,15.66l-23.03 -0.01zm51.36 -46.48c2.44,0.38 4.85,2.43 6.09,3.58 3.18,2.96 5.66,7.51 7.47,11.68 0.62,1.44 2.21,5.67 2.47,7.06 -3.06,0.65 -12.77,1.23 -16.02,1.18l-0.01 -23.5zm-20.38 22.35c0.13,-1.19 1.91,-5.84 2.48,-7.15 0.98,-2.24 2.03,-4.44 3.26,-6.33 1.34,-2.06 2.69,-3.93 4.24,-5.34 1.24,-1.13 3.6,-3.15 6.03,-3.53l0 23.5c-2.69,0.05 -5.62,-0.17 -8.31,-0.36 -2.59,-0.18 -5.18,-0.6 -7.7,-0.79zm40.78 -0.74c-0.16,-0.85 -0.62,-2.15 -0.9,-2.98 -0.32,-0.96 -0.65,-1.9 -1.02,-2.86 -1.63,-4.21 -3.91,-8.96 -6.72,-12.43 -0.31,-0.38 -0.56,-0.73 -0.87,-1.07 -0.37,-0.41 -0.57,-0.57 -0.87,-1.03 2.19,0.36 5.98,1.82 7.87,2.69 4.4,2.03 7.7,4.06 11.29,7.04 1.3,1.08 5.67,5.13 6.46,6.49 -1.19,0.9 -13.17,4.15 -15.24,4.15zm-60.4 -4.15c0.45,-0.78 3.04,-3.4 3.78,-4.1l1.34 -1.24c1.84,-1.67 3.65,-3.02 5.89,-4.51 2.11,-1.41 4.32,-2.56 6.8,-3.71 1.88,-0.86 5.61,-2.3 7.8,-2.66 -0.27,0.43 -2.2,2.59 -3.39,4.4 -0.99,1.49 -1.91,3.12 -2.78,4.87 -1.1,2.21 -3.72,8.57 -4.2,11.1 -2.07,0 -14.04,-3.24 -15.24,-4.15zm-15.76 33.99c0.38,7.8 2.42,15.24 5.48,21.3 0.76,1.5 1.58,2.99 2.4,4.32 0.23,0.37 0.44,0.69 0.68,1.07l4.3 5.74c1.72,1.91 2.27,2.43 4.07,4.22 1.14,1.14 2.3,2.06 3.6,3.12 3.43,2.78 8.47,5.69 12.7,7.39 14.14,5.66 30.51,5.39 44.13,-1.55 3.14,-1.6 5.78,-3.22 8.32,-5.12 1.81,-1.36 2.24,-1.85 3.69,-3.04 1.98,-1.62 4.81,-4.84 6.47,-6.89 1.15,-1.43 1.83,-2.46 2.79,-3.93 5.92,-9.07 9.03,-20.18 8.53,-31.61 -0.35,-7.82 -2.45,-15.21 -5.48,-21.29 -0.43,-0.86 -3,-5.44 -3.71,-6.42l-2.92 -3.81c-0.49,-0.65 -1.03,-1.17 -1.54,-1.77 -1.95,-2.3 -4.56,-4.59 -6.89,-6.47 -9.63,-7.75 -22.73,-11.91 -35.53,-11.32 -9.52,0.43 -18.19,3.29 -25.61,7.88 -3.23,2 -4.96,3.39 -7.69,5.76 -0.6,0.52 -1.15,1.06 -1.72,1.6 -1.13,1.07 -2.24,2.39 -3.25,3.48 -0.95,1.03 -2.09,2.59 -2.96,3.76l-1.33 1.98c-6,9.19 -9.07,20.44 -8.53,31.6z"/>
 </g>
</svg>
